<svg width="244" height="92" viewBox="0 0 244 92" fill="none" xmlns="http://www.w3.org/2000/svg">
<path d="M47.0112 18.2397C47.1912 20.3297 47.0113 22.5197 46.4613 24.8297C45.9113 27.1397 44.9413 29.4197 43.5713 31.6797C42.1913 33.9397 40.3712 36.1497 38.1012 38.2797C35.8312 40.4197 33.0812 42.3497 29.8312 44.0797C30.8512 46.0297 31.8813 47.8897 32.9313 49.6497C33.9813 51.4097 35.0113 53.0697 36.0213 54.6197C37.0313 56.1697 37.9913 57.5997 38.9013 58.9097C39.8113 60.2197 40.6313 61.3897 41.3613 62.4197C40.8213 62.6497 40.1913 62.9297 39.4513 63.2397C38.7113 63.5497 37.9613 63.8697 37.1813 64.1997C36.4013 64.5297 35.6413 64.8397 34.9013 65.1397C34.1513 65.4397 33.5012 65.6897 32.9412 65.8797C32.7412 65.4397 32.4413 64.7597 32.0513 63.8197C31.6613 62.8797 31.2113 61.7597 30.7013 60.4597C30.1913 59.1497 29.6412 57.6897 29.0512 56.0597C28.4512 54.4297 27.8612 52.7097 27.2512 50.8997C26.6512 49.0897 26.0612 47.2097 25.4912 45.2697C24.9212 43.3297 24.3912 41.3897 23.9112 39.4597C26.4312 38.3297 28.6712 37.1197 30.6312 35.8097C32.5912 34.5097 34.2913 33.1497 35.7313 31.7597C37.1713 30.3697 38.3812 28.9597 39.3512 27.5297C40.3212 26.0997 41.0913 24.7197 41.6613 23.3697C42.2313 22.0197 42.6213 20.7297 42.8413 19.5097C43.0513 18.2897 43.1112 17.1697 43.0312 16.1697C43.0013 15.7797 42.9412 15.4397 42.8512 15.1497C42.7612 14.8597 42.6212 14.6297 42.4212 14.4597C42.2212 14.2897 41.9513 14.1997 41.6113 14.1797C41.2713 14.1597 40.8213 14.2097 40.2812 14.3397C39.3413 14.6297 38.3113 15.0997 37.2013 15.7497C36.0913 16.3997 34.9413 17.1997 33.7313 18.1397C32.5213 19.0797 31.2812 20.1497 29.9912 21.3597C28.7012 22.5697 27.4112 23.8497 26.1112 25.2297C25.5612 27.6697 24.9112 30.2597 24.1612 32.9897C23.4112 35.7297 22.5812 38.4597 21.6612 41.1897C20.7412 43.9197 19.7712 46.5797 18.7212 49.1597C17.6812 51.7497 16.6012 54.1197 15.4812 56.2897C14.3612 58.4597 13.2213 60.3497 12.0513 61.9697C10.8813 63.5897 9.72125 64.7797 8.57125 65.5397C8.28125 65.7297 7.92125 65.9197 7.49125 66.0997C7.06125 66.2797 6.52125 66.4297 5.88125 66.5497C5.64125 66.5897 5.34125 66.5097 4.98125 66.3197C4.62125 66.1197 4.26125 65.8697 3.88125 65.5497C3.50125 65.2297 3.12125 64.8697 2.73125 64.4797C2.34125 64.0797 1.99125 63.6997 1.66125 63.3397C1.33125 62.9797 1.05125 62.6497 0.83125 62.3597C0.61125 62.0697 0.46125 61.8797 0.39125 61.7797C0.20125 61.4897 0.08125 61.1297 0.03125 60.7097C-0.01875 60.2897 -0.00875 59.8697 0.06125 59.4597C0.35125 58.0497 0.79125 56.4997 1.38125 54.7997C1.97125 53.0997 2.69125 51.3097 3.52125 49.4297C4.36125 47.5497 5.30125 45.6197 6.35125 43.6197C7.40125 41.6197 8.55125 39.6197 9.78125 37.6297C11.0213 35.6297 12.3313 33.6597 13.7113 31.6997C15.1013 29.7397 16.5312 27.8697 18.0312 26.0697C18.7912 22.7297 19.3812 19.5697 19.8012 16.6097C20.2212 13.6497 20.4012 11.0797 20.3312 8.92969C21.1812 9.18969 21.9912 9.53969 22.7712 9.97969C23.5512 10.4297 24.2612 10.8997 24.9012 11.3997C25.5412 11.8997 26.1112 12.4097 26.6112 12.9197C27.1112 13.4297 27.5112 13.8897 27.8112 14.2997C27.8012 14.6497 27.7812 15.0097 27.7512 15.3697C27.7212 15.7297 27.6712 16.1297 27.6112 16.5397C29.5612 15.0297 31.5013 13.8097 33.4313 12.8897C35.3613 11.9697 37.2613 11.4297 39.1513 11.2597C39.6013 11.2197 40.1013 11.3097 40.6613 11.5097C41.2113 11.7197 41.7713 12.0097 42.3313 12.3897C42.8913 12.7697 43.4413 13.1997 43.9813 13.6997C44.5213 14.1997 45.0013 14.7097 45.4313 15.2397C45.8613 15.7697 46.2113 16.2997 46.5013 16.8197C46.7813 17.3397 46.9512 17.8197 47.0112 18.2397ZM5.14125 60.2697C5.61125 60.2297 6.20125 59.6497 6.91125 58.5397C7.62125 57.4297 8.39125 55.9297 9.22125 54.0397C10.0513 52.1497 10.9213 49.9597 11.8113 47.4697C12.7013 44.9797 13.5813 42.3497 14.4313 39.5697C12.9813 41.6297 11.6513 43.6697 10.4313 45.6697C9.21125 47.6697 8.17125 49.5597 7.31125 51.3397C6.44125 53.1197 5.79125 54.7397 5.34125 56.2097C4.89125 57.6797 4.71125 58.9197 4.80125 59.9197C4.82125 60.1697 4.93125 60.2797 5.14125 60.2597V60.2697Z" fill="white"/>
<path d="M48.2809 53.0998C48.3309 53.7098 48.5909 53.9998 49.0409 53.9598C49.5109 53.9198 50.1009 53.4898 50.8109 52.6798C51.5209 51.8698 52.2509 50.8498 52.9909 49.6298C52.9309 49.4098 52.8909 49.2098 52.8609 49.0398C52.8309 48.8698 52.8209 48.7098 52.8009 48.5698C52.7609 48.1598 52.7709 47.6698 52.8109 47.0998C52.8509 46.5298 53.0309 45.8698 53.3309 45.1198C53.5309 44.5498 53.7809 43.9798 54.0809 43.4198C54.3309 42.9198 54.6309 42.3898 54.9909 41.8098C55.3509 41.2298 55.7609 40.6898 56.2109 40.1698L56.3809 39.9698C56.6109 40.1998 56.9109 40.5098 57.2809 40.8998C57.6509 41.2898 58.0309 41.6898 58.4109 42.0998C58.7909 42.5098 59.1209 42.8898 59.4109 43.2298C59.7009 43.5698 59.8809 43.8198 59.9509 43.9598C60.0309 44.8398 59.9509 45.7298 59.7109 46.6398C59.4709 47.5498 59.1209 48.4498 58.6609 49.3598C59.8809 49.1698 60.9909 48.7598 62.0009 48.1198C63.0109 47.4898 64.0309 46.5098 65.0709 45.1798C65.2709 45.3498 65.5309 45.5798 65.8609 45.8698C66.1809 46.1598 66.4509 46.4098 66.6509 46.6198C65.8709 47.5998 65.0909 48.4198 64.3109 49.0798C63.5309 49.7498 62.7509 50.2898 61.9509 50.7098C61.1509 51.1298 60.3309 51.4498 59.4809 51.6798C58.6309 51.9098 57.7609 52.0598 56.8609 52.1398C56.2309 52.9398 55.5409 53.6798 54.8009 54.3598C54.0609 55.0398 53.2909 55.6498 52.5009 56.1698C51.7109 56.6898 50.9209 57.1098 50.1209 57.4298C49.3209 57.7498 48.5609 57.9398 47.8209 57.9998C47.2109 58.0498 46.5609 57.9298 45.8709 57.6098C45.1809 57.2998 44.5509 56.8898 43.9709 56.3998C43.3909 55.8998 42.9009 55.3598 42.5009 54.7798C42.1009 54.1998 41.8809 53.6698 41.8409 53.1998C41.7009 51.6498 41.7809 50.0798 42.0609 48.5098C42.3409 46.9398 42.8709 45.4498 43.6509 44.0298C44.4209 42.6098 45.4509 41.3298 46.7509 40.1898C48.0409 39.0498 49.6109 38.1298 51.4709 37.4298C51.5309 37.3798 51.6309 37.3398 51.7809 37.3098C51.9309 37.2798 52.0609 37.2498 52.1609 37.2498C52.4509 37.2198 52.7609 37.3098 53.0909 37.4898C53.4309 37.6798 53.7409 37.8898 54.0409 38.1298C54.3409 38.3698 54.5909 38.6098 54.8009 38.8498C55.0109 39.0898 55.1109 39.2498 55.1209 39.3298C55.0909 39.4398 54.9509 39.5798 54.6909 39.7498C54.4409 39.9298 54.1009 40.2198 53.6809 40.6298C53.2609 41.0398 52.7809 41.6098 52.2209 42.3498C51.6609 43.0898 51.0709 44.0498 50.4309 45.2398C49.4709 46.9898 48.8509 48.5598 48.5809 49.9298C48.3109 51.2998 48.2009 52.3598 48.2709 53.0998H48.2809Z" fill="white"/>
<path d="M68.0231 51.3696C68.0731 51.9796 68.3331 52.2696 68.7831 52.2296C69.2531 52.1896 69.8431 51.7596 70.5531 50.9496C71.2631 50.1396 71.9931 49.1196 72.7331 47.8996C72.6731 47.6796 72.6331 47.4796 72.6031 47.3096C72.5731 47.1396 72.5631 46.9796 72.5431 46.8396C72.5031 46.4296 72.5131 45.9396 72.5531 45.3696C72.5931 44.7996 72.7731 44.1396 73.0731 43.3896C73.2731 42.8196 73.5231 42.2496 73.8231 41.6896C74.0631 41.1896 74.3731 40.6596 74.7331 40.0796C75.0931 39.4996 75.5031 38.9596 75.9531 38.4396L76.1231 38.2396C76.3531 38.4696 76.6531 38.7796 77.0231 39.1696C77.3931 39.5596 77.7731 39.9596 78.1531 40.3696C78.5331 40.7796 78.8631 41.1596 79.1531 41.4996C79.4431 41.8496 79.6231 42.0896 79.6931 42.2296C79.7731 43.1096 79.6931 43.9996 79.4531 44.9096C79.2131 45.8196 78.8631 46.7196 78.4031 47.6296C79.6231 47.4396 80.7331 47.0296 81.7431 46.3896C82.7531 45.7596 83.7731 44.7796 84.8131 43.4496C85.0131 43.6196 85.2731 43.8496 85.6031 44.1396C85.9231 44.4296 86.1931 44.6796 86.3931 44.8896C85.6131 45.8696 84.8331 46.6896 84.0531 47.3496C83.2731 48.0196 82.4931 48.5596 81.6931 48.9796C80.8931 49.3996 80.0731 49.7196 79.2231 49.9496C78.3731 50.1796 77.5031 50.3296 76.6031 50.4096C75.9731 51.2096 75.2831 51.9496 74.5431 52.6296C73.8031 53.3096 73.0331 53.9196 72.2431 54.4396C71.4531 54.9596 70.6631 55.3796 69.8631 55.6996C69.0631 56.0196 68.3031 56.2096 67.5631 56.2696C66.9531 56.3196 66.3031 56.1896 65.6131 55.8796C64.9231 55.5696 64.2931 55.1696 63.7131 54.6696C63.1331 54.1696 62.6431 53.6296 62.2431 53.0496C61.8431 52.4696 61.6231 51.9396 61.5831 51.4696C61.4431 49.9196 61.5231 48.3496 61.8031 46.7796C62.0931 45.2096 62.6131 43.7196 63.3931 42.2996C64.1631 40.8796 65.1931 39.5996 66.4931 38.4596C67.7831 37.3196 69.3531 36.3996 71.2131 35.6996C71.2731 35.6496 71.3731 35.6096 71.5231 35.5796C71.6731 35.5496 71.8031 35.5196 71.9031 35.5196C72.1931 35.4996 72.5031 35.5796 72.8331 35.7596C73.1731 35.9496 73.4831 36.1596 73.7831 36.3996C74.0831 36.6396 74.3331 36.8796 74.5431 37.1196C74.7531 37.3596 74.8531 37.5196 74.8631 37.5996C74.8331 37.7096 74.6931 37.8496 74.4331 38.0196C74.1831 38.1996 73.8431 38.4896 73.4231 38.8996C73.0031 39.3096 72.5231 39.8796 71.9631 40.6196C71.4131 41.3596 70.8131 42.3196 70.1731 43.5096C69.2131 45.2596 68.5931 46.8296 68.3231 48.1996C68.0531 49.5696 67.9531 50.6296 68.0131 51.3696H68.0231Z" fill="white"/>
<path d="M91.7103 37.5199C91.5203 38.1999 91.3303 38.8799 91.1503 39.5799C90.9703 40.2799 90.7803 40.9899 90.6003 41.7299C91.7603 40.1399 92.7603 38.8499 93.6103 37.8299C94.4603 36.8199 95.1803 36.0199 95.7803 35.4299C96.3803 34.8399 96.8703 34.4299 97.2503 34.1999C97.6303 33.9699 97.9403 33.8499 98.1603 33.8299C98.4303 33.8099 98.8403 33.8999 99.3903 34.1199C99.9503 34.3399 100.51 34.6199 101.09 34.9599C101.67 35.2999 102.17 35.6599 102.61 36.0299C103.04 36.3999 103.28 36.7399 103.3 37.0499C103.3 37.1099 103.3 37.1899 103.29 37.2799C103.28 37.3699 103.26 37.4899 103.23 37.6399C103.11 38.1699 102.95 38.7899 102.76 39.5099C102.57 40.2299 102.36 40.9699 102.14 41.7399C101.92 42.5099 101.7 43.2799 101.48 44.0599C101.26 44.8299 101.06 45.5499 100.9 46.2299C100.73 46.9099 100.6 47.4899 100.5 47.9999C100.4 48.4999 100.36 48.8699 100.38 49.0899C100.39 49.2099 100.46 49.2699 100.58 49.2599C100.8 49.2399 101.13 49.0799 101.56 48.7699C101.99 48.4599 102.47 48.0699 103.02 47.5899C103.57 47.1099 104.13 46.5899 104.72 46.0199C105.31 45.4499 105.87 44.8899 106.41 44.3399C106.95 43.7899 107.44 43.2899 107.87 42.8399C108.3 42.3899 108.64 42.0499 108.86 41.8299C109.08 41.9999 109.33 42.2099 109.6 42.4799C109.87 42.7399 110.13 42.9899 110.38 43.2199C109.97 43.7099 109.45 44.3099 108.84 45.0099C108.22 45.7099 107.55 46.4399 106.82 47.1799C106.09 47.9199 105.33 48.6699 104.54 49.4199C103.75 50.1699 102.98 50.8499 102.23 51.4499C101.48 52.0499 100.77 52.5499 100.1 52.9299C99.4303 53.3199 98.8603 53.5299 98.3903 53.5699C98.0803 53.5999 97.6803 53.5199 97.2003 53.3499C96.7103 53.1799 96.2303 52.9499 95.7603 52.6699C95.2903 52.3899 94.8903 52.0699 94.5503 51.7099C94.2103 51.3499 94.0203 50.9799 93.9903 50.6099C94.1003 49.7599 94.2703 48.7799 94.4903 47.6899C94.7103 46.5999 94.9603 45.4799 95.2303 44.3299C95.5003 43.1799 95.7903 42.0399 96.0903 40.9199C96.3903 39.7899 96.6903 38.7499 96.9803 37.7999L96.9203 37.8699C96.5703 38.3699 96.0703 39.0399 95.4103 39.8699C94.7503 40.6999 94.0103 41.7499 93.2003 43.0299C92.3803 44.3099 91.5403 45.8399 90.6603 47.6099C89.7803 49.3899 88.9603 51.4699 88.1803 53.8699C88.0803 54.1699 87.9903 54.3999 87.9003 54.5699C87.8103 54.7399 87.6203 54.8399 87.3403 54.8699C86.9903 54.8999 86.5903 54.8399 86.1303 54.6799C85.6703 54.5199 85.2003 54.3099 84.7103 54.0299C84.2203 53.7499 83.7303 53.4399 83.2403 53.0899C82.7503 52.7399 82.3003 52.3899 81.9003 52.0299C81.8903 51.9099 81.9203 51.5499 81.9803 50.9699C82.0403 50.3899 82.1403 49.6499 82.2703 48.7699C82.4003 47.8799 82.5703 46.8699 82.7803 45.7299C82.9903 44.5899 83.2303 43.3899 83.5203 42.1299C83.8003 40.8699 84.1203 39.5799 84.4603 38.2599C84.8103 36.9399 85.2003 35.6699 85.6203 34.4299C86.5103 34.7599 87.5203 35.1799 88.6203 35.6799C89.7303 36.1799 90.7603 36.7899 91.7303 37.5099L91.7103 37.5199Z" fill="white"/>
<path d="M129.331 41.5497C127.611 43.5597 125.971 45.2597 124.411 46.6497C122.851 48.0397 121.351 49.1897 119.901 50.0797C118.451 50.9697 117.051 51.6397 115.701 52.0897C114.351 52.5397 113.021 52.8197 111.711 52.9297C111.161 52.9797 110.531 52.8297 109.821 52.4797C109.111 52.1297 108.441 51.6897 107.801 51.1597C107.171 50.6297 106.631 50.0597 106.181 49.4597C105.741 48.8597 105.491 48.3397 105.451 47.8897C105.301 46.2097 105.401 44.6497 105.741 43.2097C106.081 41.7697 106.581 40.4497 107.231 39.2597C107.881 38.0697 108.671 36.9997 109.561 36.0597C110.461 35.1197 111.411 34.3097 112.411 33.6497C113.411 32.9797 114.421 32.4597 115.441 32.0897C116.461 31.7097 117.411 31.4897 118.291 31.4097C118.921 31.3497 119.571 31.4797 120.231 31.7997C120.891 32.1097 121.491 32.5097 122.051 32.9997C122.611 33.4897 123.071 34.0097 123.441 34.5597C123.811 35.1097 124.011 35.6097 124.051 36.0397C124.111 36.7397 123.881 37.4697 123.361 38.2497C122.841 39.0297 122.081 39.8397 121.081 40.6897C120.081 41.5397 118.871 42.4197 117.451 43.3397C116.031 44.2597 114.451 45.1997 112.721 46.1497C112.701 46.6497 112.721 47.1297 112.751 47.5997C112.811 48.2297 112.981 48.6497 113.281 48.8497C113.581 49.0497 114.101 49.1197 114.861 49.0497C116.211 48.9297 117.461 48.5997 118.621 48.0397C119.781 47.4897 120.881 46.7997 121.921 45.9897C122.961 45.1797 123.951 44.2597 124.901 43.2597C125.841 42.2497 126.771 41.2297 127.691 40.1997L129.321 41.5697L129.331 41.5497ZM117.861 34.8197C117.451 34.8597 117.021 35.1197 116.571 35.5997C116.121 36.0797 115.681 36.6997 115.251 37.4597C114.821 38.2197 114.421 39.0797 114.051 40.0497C113.681 41.0197 113.381 42.0197 113.141 43.0497C113.851 42.4897 114.551 41.9097 115.231 41.2897C115.911 40.6697 116.511 40.0397 117.031 39.3897C117.551 38.7397 117.961 38.0797 118.251 37.4097C118.541 36.7497 118.661 36.0997 118.611 35.4597C118.591 35.2797 118.521 35.1197 118.401 34.9797C118.281 34.8497 118.101 34.7897 117.881 34.8097L117.861 34.8197Z" fill="white"/>
<path d="M147.104 49.31C148.904 42.37 150.744 36.07 152.614 30.41C154.484 24.75 156.434 19.83 158.484 15.63C160.524 11.43 162.694 8.01 164.974 5.35C167.254 2.7 169.724 0.91 172.394 0C172.774 0.05 173.174 0.16 173.604 0.34C174.034 0.52 174.454 0.74 174.864 0.99C175.274 1.24 175.674 1.51 176.044 1.8C176.424 2.09 176.734 2.36 176.984 2.63C177.094 2.72 177.174 2.83 177.224 2.93C177.274 3.04 177.314 3.23 177.334 3.49C177.444 4.76 177.294 6.18 176.884 7.75C176.474 9.32 175.854 10.98 175.034 12.74C174.204 14.49 173.204 16.31 172.014 18.18C170.824 20.06 169.504 21.93 168.034 23.8C166.564 25.67 164.994 27.51 163.324 29.32C161.644 31.13 159.914 32.84 158.114 34.46C157.564 36.22 156.984 38.16 156.384 40.27C155.774 42.39 155.134 44.71 154.474 47.24C153.284 51.95 154.474 47.24 153.594 50.66C152.954 53.14 152.364 55.79 151.724 58.59C151.084 61.39 150.414 64.38 149.724 67.58L141.914 70.92C142.644 67.7 143.364 64.59 144.064 61.58C144.774 58.57 145.494 55.64 146.234 52.79M162.874 21.03C162.684 21.46 162.454 22.01 162.184 22.67C161.944 23.23 161.664 23.93 161.344 24.78C161.024 25.63 160.674 26.64 160.284 27.81C161.604 26.36 162.854 24.84 164.044 23.26C165.234 21.68 166.334 20.1 167.354 18.5C168.374 16.91 169.284 15.35 170.104 13.82C170.914 12.29 171.604 10.87 172.174 9.54C172.734 8.21 173.164 7.02 173.434 5.97C173.714 4.92 173.824 4.06 173.764 3.41C173.734 3.12 173.624 2.99 173.424 3.01C173.034 3.04 172.554 3.4 171.974 4.06C171.394 4.73 170.674 5.78 169.824 7.22C168.974 8.66 167.974 10.5 166.834 12.77C165.694 15.03 164.374 17.79 162.884 21.03H162.874Z" fill="white"/>
<path d="M172.711 42.2104C172.761 42.8204 173.021 43.1104 173.471 43.0704C173.941 43.0304 174.531 42.6004 175.241 41.7904C175.951 40.9704 176.681 39.9604 177.421 38.7404C177.361 38.5204 177.321 38.3204 177.291 38.1504C177.261 37.9804 177.251 37.8204 177.231 37.6804C177.191 37.2704 177.201 36.7804 177.241 36.2104C177.281 35.6404 177.461 34.9804 177.761 34.2304C177.961 33.6604 178.211 33.0904 178.511 32.5304C178.761 32.0304 179.061 31.5004 179.421 30.9204C179.781 30.3404 180.191 29.8004 180.641 29.2804L180.811 29.0804C181.041 29.3104 181.341 29.6204 181.711 30.0104C182.081 30.4004 182.461 30.8004 182.841 31.2104C183.221 31.6204 183.551 32.0004 183.841 32.3404C184.131 32.6804 184.311 32.9304 184.381 33.0704C184.461 33.9504 184.381 34.8404 184.141 35.7504C183.901 36.6604 183.551 37.5604 183.091 38.4704C184.311 38.2804 185.421 37.8704 186.431 37.2304C187.441 36.6004 188.461 35.6204 189.501 34.2904C189.701 34.4604 189.961 34.6904 190.291 34.9804C190.611 35.2704 190.881 35.5204 191.081 35.7304C190.301 36.7104 189.521 37.5304 188.741 38.1904C187.961 38.8604 187.181 39.4004 186.381 39.8204C185.581 40.2404 184.761 40.5704 183.911 40.7904C183.061 41.0204 182.191 41.1704 181.291 41.2504C180.661 42.0504 179.971 42.7904 179.231 43.4704C178.491 44.1504 177.721 44.7604 176.931 45.2804C176.141 45.8004 175.351 46.2204 174.551 46.5404C173.751 46.8604 172.991 47.0504 172.251 47.1104C171.641 47.1604 170.991 47.0404 170.301 46.7204C169.611 46.4104 168.981 46.0004 168.401 45.5104C167.821 45.0104 167.331 44.4704 166.931 43.8904C166.531 43.3104 166.311 42.7804 166.271 42.3104C166.131 40.7604 166.211 39.1904 166.491 37.6204C166.781 36.0504 167.301 34.5504 168.081 33.1404C168.851 31.7204 169.881 30.4404 171.181 29.3004C172.471 28.1604 174.051 27.2404 175.901 26.5404C175.961 26.4904 176.061 26.4504 176.211 26.4204C176.361 26.3904 176.491 26.3604 176.591 26.3604C176.881 26.3404 177.191 26.4204 177.521 26.6004C177.861 26.7904 178.171 27.0004 178.471 27.2404C178.771 27.4804 179.021 27.7204 179.231 27.9604C179.441 28.2004 179.541 28.3604 179.551 28.4404C179.521 28.5504 179.381 28.6904 179.121 28.8604C178.871 29.0404 178.531 29.3304 178.111 29.7404C177.691 30.1504 177.211 30.7204 176.651 31.4604C176.101 32.2004 175.501 33.1604 174.861 34.3504C173.901 36.1004 173.281 37.6704 173.011 39.0404C172.741 40.4104 172.631 41.4704 172.701 42.2104H172.711Z" fill="white"/>
<path d="M202.798 29.5702C202.598 30.3902 202.348 31.3302 202.038 32.3902C201.728 33.4502 201.428 34.4802 201.148 35.5002C200.868 36.5102 200.628 37.4302 200.448 38.2502C200.258 39.0702 200.188 39.6502 200.218 40.0002C200.228 40.1202 200.298 40.1802 200.418 40.1702C200.638 40.1502 200.968 39.9902 201.398 39.6802C201.828 39.3702 202.308 38.9802 202.858 38.5002C203.408 38.0202 203.968 37.5002 204.558 36.9302C205.148 36.3602 205.708 35.8002 206.248 35.2502C206.788 34.7002 207.278 34.2002 207.708 33.7502C208.138 33.3002 208.478 32.9602 208.698 32.7302C208.898 32.9002 209.138 33.1202 209.418 33.3802C209.698 33.6402 209.958 33.8902 210.208 34.1102C209.798 34.6002 209.278 35.2002 208.668 35.9002C208.048 36.6002 207.378 37.3302 206.648 38.0702C205.918 38.8102 205.158 39.5602 204.368 40.3102C203.578 41.0602 202.798 41.7402 202.038 42.3402C201.278 42.9402 200.558 43.4402 199.898 43.8302C199.228 44.2202 198.658 44.4302 198.188 44.4702C197.878 44.5002 197.478 44.4202 196.998 44.2502C196.508 44.0802 196.038 43.8502 195.578 43.5702C195.118 43.2902 194.718 42.9702 194.378 42.6102C194.038 42.2502 193.848 41.8802 193.818 41.5102C194.008 40.1102 194.208 38.8902 194.428 37.8402C194.648 36.7902 194.858 35.8902 195.058 35.1402C195.258 34.3902 195.448 33.7802 195.608 33.3102C195.778 32.8402 195.898 32.4902 195.978 32.2602C195.728 32.1802 195.478 32.0902 195.238 31.9802C194.998 31.8802 194.768 31.7702 194.528 31.6702C194.228 32.0502 193.898 32.4502 193.538 32.8702C193.178 33.2902 192.798 33.7202 192.428 34.1402C192.048 34.5602 191.678 34.9802 191.298 35.3802C190.918 35.7802 190.578 36.1502 190.278 36.4902L188.678 35.1102C189.168 34.5502 189.748 33.8802 190.438 33.0902C191.118 32.3002 191.788 31.5002 192.438 30.7002C191.898 30.4402 191.418 30.1902 190.978 29.9502C190.548 29.7102 190.178 29.4902 189.868 29.2902C189.498 29.0802 189.168 28.8802 188.888 28.7002C188.758 28.6502 188.688 28.5202 188.668 28.3202C188.648 28.1002 188.708 27.7602 188.848 27.3302C188.988 26.9002 189.168 26.4302 189.388 25.9202C189.608 25.4202 189.858 24.9002 190.118 24.3702C190.378 23.8402 190.638 23.3602 190.888 22.9302C191.138 22.5002 191.358 22.1402 191.548 21.8702C191.738 21.6002 191.868 21.4602 191.928 21.4502C191.968 21.4502 192.108 21.4902 192.358 21.5702C192.598 21.6502 192.858 21.7502 193.138 21.8602C193.418 21.9702 193.678 22.1002 193.918 22.2402C194.158 22.3802 194.308 22.5202 194.388 22.6302C194.418 22.7302 194.458 22.9402 194.508 23.2702C194.558 23.6002 194.608 23.9902 194.678 24.4602C195.508 24.8002 196.368 25.1902 197.258 25.6402C198.138 26.0902 198.948 26.5202 199.688 26.9302C200.548 27.3902 201.378 27.8602 202.158 28.3502C202.438 28.4902 202.628 28.6802 202.718 28.9202C202.808 29.1602 202.838 29.3702 202.788 29.5602L202.798 29.5702Z" fill="white"/>
<path d="M214.551 26.7699C214.361 27.4299 214.171 28.0999 213.991 28.7999C213.801 29.4999 213.631 30.1999 213.461 30.9199C214.611 29.2699 215.581 27.9499 216.341 26.9599C217.111 25.9699 217.751 25.1899 218.271 24.6299C218.791 24.0699 219.221 23.6699 219.571 23.4299C219.921 23.1899 220.241 23.0099 220.541 22.8799C220.721 22.8599 221.041 22.9399 221.501 23.1099C221.961 23.2799 222.451 23.4899 222.981 23.7399C223.511 23.9899 224.011 24.2599 224.491 24.5399C224.971 24.8199 225.311 25.0499 225.511 25.2399C225.691 25.3899 225.731 25.6199 225.631 25.9399C225.441 26.6199 225.261 27.2999 225.081 27.9799C224.901 28.6699 224.731 29.3699 224.571 30.0799C225.801 28.3899 226.841 27.0199 227.681 25.9899C228.521 24.9599 229.211 24.1599 229.741 23.5999C230.281 23.0399 230.701 22.6599 231.021 22.4699C231.331 22.2799 231.581 22.1699 231.771 22.1599C232.041 22.1399 232.451 22.2299 233.001 22.4499C233.561 22.6699 234.121 22.9499 234.701 23.2899C235.281 23.6299 235.781 23.9899 236.221 24.3599C236.651 24.7299 236.891 25.0699 236.911 25.3799C236.911 25.4399 236.911 25.5199 236.901 25.6099C236.891 25.6999 236.871 25.8199 236.841 25.9699C236.721 26.4999 236.561 27.1199 236.371 27.8399C236.181 28.5599 235.971 29.2999 235.751 30.0699C235.531 30.8399 235.311 31.6099 235.091 32.3899C234.871 33.1599 234.671 33.8799 234.511 34.5599C234.341 35.2299 234.211 35.8199 234.111 36.3299C234.011 36.8299 233.971 37.1999 233.991 37.4199C234.001 37.5399 234.071 37.5999 234.191 37.5899C234.411 37.5699 234.741 37.4099 235.171 37.0999C235.601 36.7899 236.081 36.3999 236.631 35.9199C237.181 35.4399 237.741 34.9199 238.331 34.3499C238.921 33.7799 239.481 33.2199 240.021 32.6699C240.561 32.1199 241.051 31.6199 241.481 31.1699C241.911 30.7199 242.251 30.3799 242.471 30.1599C242.671 30.3299 242.911 30.5499 243.191 30.8099C243.471 31.0699 243.731 31.3199 243.981 31.5399C243.571 32.0299 243.051 32.6299 242.441 33.3299C241.821 34.0299 241.151 34.7599 240.421 35.4999C239.691 36.2399 238.931 36.9899 238.141 37.7399C237.351 38.4899 236.581 39.1699 235.831 39.7699C235.081 40.3699 234.371 40.8699 233.701 41.2499C233.031 41.6399 232.451 41.8499 231.961 41.8999C231.651 41.9299 231.251 41.8499 230.771 41.6799C230.281 41.5099 229.811 41.2799 229.351 40.9999C228.891 40.7199 228.491 40.3999 228.151 40.0399C227.811 39.6799 227.621 39.3099 227.591 38.9499C227.701 38.0999 227.861 37.1199 228.081 36.0299C228.291 34.9399 228.541 33.8199 228.811 32.6699C229.081 31.5199 229.371 30.3899 229.671 29.2699C229.971 28.1499 230.271 27.1099 230.561 26.1599C230.191 26.6899 229.701 27.3299 229.091 28.0799C228.481 28.8399 227.791 29.8199 227.031 31.0299C226.271 32.2399 225.471 33.7299 224.641 35.4899C223.811 37.2599 223.001 39.3899 222.231 41.8899C222.141 42.3099 221.861 42.5399 221.391 42.5799C221.141 42.5999 220.841 42.5799 220.471 42.5199C220.101 42.4599 219.711 42.3499 219.301 42.1899C218.881 42.0299 218.451 41.8299 218.011 41.5799C217.571 41.3299 217.141 41.0199 216.741 40.6399C216.731 40.4999 216.771 40.0599 216.861 39.3199C216.951 38.5799 217.091 37.6299 217.291 36.4799C217.491 35.3299 217.731 34.0399 218.021 32.6099C218.311 31.1799 218.641 29.7099 219.031 28.1899C218.591 28.7699 218.031 29.4999 217.371 30.3899C216.711 31.2799 216.011 32.3599 215.271 33.5999C214.531 34.8499 213.791 36.2899 213.051 37.9199C212.311 39.5499 211.631 41.3799 211.031 43.4199C210.941 43.8599 210.681 44.0999 210.231 44.1399C209.881 44.1699 209.481 44.1099 209.021 43.9499C208.561 43.7899 208.091 43.5799 207.601 43.2999C207.111 43.0199 206.621 42.7099 206.131 42.3599C205.641 42.0099 205.191 41.6599 204.791 41.2999C204.781 41.1799 204.811 40.8199 204.871 40.2399C204.931 39.6599 205.031 38.9199 205.161 38.0299C205.291 37.1399 205.451 36.1299 205.651 34.9899C205.851 33.8499 206.091 32.6499 206.371 31.3899C206.651 30.1299 206.971 28.8399 207.331 27.5199C207.691 26.1999 208.081 24.9199 208.511 23.6899C209.401 24.0199 210.411 24.4399 211.511 24.9399C212.621 25.4399 213.641 26.0499 214.591 26.7699H214.551Z" fill="white"/>
<path d="M154.392 52.0496C150.922 52.3596 147.512 53.1296 144.242 54.3396L140.382 55.7696C140.472 55.5096 140.572 55.2396 140.672 54.9296C140.862 54.3396 141.152 53.5696 141.382 52.9296C141.482 52.6496 141.562 52.3996 141.622 52.1896C141.912 51.1996 142.152 50.2596 142.372 49.3796L143.132 45.7796C143.272 45.0096 143.412 44.2096 143.562 43.3796C143.702 42.5496 143.872 41.6496 144.062 40.6596C144.252 39.6796 144.472 38.5896 144.722 37.3996C144.972 36.2196 145.262 34.8896 145.612 33.4196C145.642 33.3096 145.662 33.2096 145.682 33.1296C145.692 33.0496 145.692 32.9596 145.682 32.8496C145.662 32.6296 145.412 32.3196 144.922 31.9396C144.442 31.5696 143.892 31.1896 143.282 30.8196C142.672 30.4496 142.092 30.1396 141.562 29.8696C141.022 29.6096 140.692 29.4896 140.562 29.4996C140.482 29.4996 140.342 29.9196 140.152 30.7496C139.952 31.5896 139.712 32.6896 139.422 34.0796C138.572 35.9096 137.752 37.4796 136.962 38.7896C136.162 40.1096 135.442 41.1996 134.802 42.0596C134.152 42.9196 133.602 43.5596 133.162 43.9696C132.712 44.3796 132.412 44.5896 132.272 44.5996C132.192 44.6096 132.142 44.5696 132.142 44.4896C132.112 44.1796 132.172 43.6996 132.322 43.0396C132.472 42.3696 132.662 41.6296 132.912 40.7996C133.162 39.9796 133.432 39.1096 133.742 38.2096C134.042 37.3096 134.332 36.4696 134.602 35.6896C134.872 34.9196 135.112 34.2496 135.322 33.6996C135.532 33.1396 135.662 32.7896 135.712 32.6396C135.702 32.5396 135.452 32.3696 134.952 32.1396C134.462 31.8996 133.872 31.6596 133.202 31.4096C132.532 31.1596 131.852 30.9296 131.152 30.7396C130.452 30.5396 129.912 30.4296 129.512 30.3996C129.432 30.4096 129.372 30.4096 129.342 30.3996C129.312 30.3896 129.282 30.4396 129.252 30.5496C128.642 32.5996 128.082 34.5396 127.562 36.3496C127.042 38.1696 126.592 39.8096 126.212 41.2696C125.832 42.7196 125.542 43.9596 125.332 44.9796C125.122 45.9996 125.032 46.7296 125.072 47.1796C125.112 47.5696 125.282 47.9596 125.602 48.3696C125.912 48.7796 126.282 49.1396 126.712 49.4596C127.142 49.7896 127.602 50.0396 128.092 50.2396C128.582 50.4296 129.022 50.5096 129.412 50.4796C129.602 50.4596 129.802 50.4196 130.022 50.3496C130.242 50.2796 130.432 50.1796 130.582 50.0696C130.832 49.8596 131.202 49.5496 131.682 49.1496C132.162 48.7496 132.722 48.2296 133.362 47.5796C134.012 46.9396 134.702 46.1596 135.452 45.2496C136.192 44.3396 136.962 43.2796 137.742 42.0796C137.352 43.8096 136.952 45.5496 136.542 47.2996C136.142 49.0196 135.162 51.7896 134.722 53.3796C133.942 55.3096 133.212 57.0796 132.522 58.6896C130.582 60.1196 128.692 61.6396 126.852 63.2596C125.012 64.8796 123.282 66.5496 121.642 68.2596C120.002 69.9596 118.502 71.6896 117.142 73.4296C115.772 75.1696 114.592 76.8696 113.592 78.5296C112.602 80.1796 111.812 81.7696 111.252 83.2896C110.682 84.8096 110.382 86.2096 110.362 87.4796C110.352 87.7496 110.372 87.9396 110.412 88.0496C110.452 88.1696 110.522 88.2796 110.622 88.3796C110.832 88.6696 111.112 88.9796 111.452 89.2996C111.792 89.6296 112.152 89.9396 112.532 90.2296C112.912 90.5196 113.302 90.7796 113.702 91.0096C114.112 91.2296 114.492 91.3796 114.852 91.4696C117.572 90.8396 120.192 89.3296 122.712 86.9296C125.242 84.5296 127.722 81.3496 130.182 77.3796C132.632 73.4196 135.072 68.7196 137.502 63.2896C137.972 62.2496 138.312 61.4696 138.572 60.8496C140.352 60.1496 142.172 59.5196 144.002 58.9596C148.972 57.4596 154.102 56.4896 159.312 56.0996L231.312 49.4296L232.192 45.2796C232.192 45.2796 188.202 49.0296 154.392 52.0496ZM128.322 67.9896C127.922 68.7996 127.572 69.4696 127.272 69.9996C126.942 70.6296 126.652 71.1496 126.422 71.5596C124.612 74.6296 123.032 77.2296 121.672 79.3596C120.312 81.4896 119.132 83.2296 118.142 84.5696C117.152 85.9096 116.332 86.8796 115.692 87.4796C115.052 88.0896 114.542 88.3896 114.152 88.3796C113.952 88.3796 113.852 88.2296 113.852 87.9396C113.872 87.2896 114.072 86.4496 114.452 85.4296C114.842 84.4096 115.382 83.2696 116.072 82.0096C116.772 80.7496 117.592 79.3996 118.562 77.9696C119.522 76.5396 120.582 75.0796 121.752 73.5996C122.922 72.1196 124.172 70.6596 125.512 69.2096C126.842 67.7696 128.242 66.3896 129.682 65.0796C129.172 66.1996 128.722 67.1696 128.322 67.9896Z" fill="white"/>
<path d="M125.512 69.2097C124.172 70.6597 122.922 72.1197 121.752 73.5997C120.582 75.0797 119.522 76.5397 118.562 77.9697C117.592 79.3997 116.772 80.7497 116.072 82.0097C115.382 83.2697 114.842 84.4097 114.452 85.4297C114.072 86.4497 113.872 87.2897 113.852 87.9397C113.852 88.2297 113.952 88.3797 114.152 88.3797C114.542 88.3897 115.052 88.0897 115.692 87.4797C116.332 86.8797 117.152 85.9097 118.142 84.5697C119.132 83.2297 120.312 81.4897 121.672 79.3597C123.032 77.2297 124.612 74.6297 126.422 71.5597C126.652 71.1497 126.942 70.6297 127.272 69.9997C127.572 69.4697 127.922 68.7997 128.322 67.9897C128.722 67.1697 129.172 66.1997 129.682 65.0797C128.242 66.3897 126.842 67.7697 125.512 69.2097ZM141.382 52.9297C141.152 53.5697 140.862 54.3397 140.672 54.9297C140.882 54.3597 141.122 53.6997 141.412 52.9297H141.382ZM125.512 69.2097C124.172 70.6597 122.922 72.1197 121.752 73.5997C120.582 75.0797 119.522 76.5397 118.562 77.9697C117.592 79.3997 116.772 80.7497 116.072 82.0097C115.382 83.2697 114.842 84.4097 114.452 85.4297C114.072 86.4497 113.872 87.2897 113.852 87.9397C113.852 88.2297 113.952 88.3797 114.152 88.3797C114.542 88.3897 115.052 88.0897 115.692 87.4797C116.332 86.8797 117.152 85.9097 118.142 84.5697C119.132 83.2297 120.312 81.4897 121.672 79.3597C123.032 77.2297 124.612 74.6297 126.422 71.5597C126.652 71.1497 126.942 70.6297 127.272 69.9997C127.572 69.4697 127.922 68.7997 128.322 67.9897C128.722 67.1697 129.172 66.1997 129.682 65.0797C128.242 66.3897 126.842 67.7697 125.512 69.2097Z" fill="white"/>
</svg>
